<svg width="50" height="50" viewBox="0 0 50 50" fill="none" xmlns="http://www.w3.org/2000/svg">
<path fill-rule="evenodd" clip-rule="evenodd" d="M38.8446 11.0231C39.6602 11.8347 39.6635 13.1538 38.8519 13.9694L27.939 24.9372L38.9769 36.0305C39.7885 36.8461 39.7852 38.1652 38.9695 38.9768C38.1539 39.7883 36.8348 39.785 36.0233 38.9694L25.0001 27.8908L13.9769 38.9694C13.1654 39.785 11.8463 39.7883 11.0306 38.9768C10.215 38.1652 10.2117 36.8461 11.0233 36.0305L22.0612 24.9372L11.1482 13.9694C10.3367 13.1538 10.34 11.8347 11.1556 11.0231C11.9712 10.2116 13.2903 10.2149 14.1019 11.0305L25.0001 21.9835L35.8983 11.0305C36.7099 10.2149 38.0289 10.2116 38.8446 11.0231Z" fill="#111928"/>
</svg>
