<svg width="50" height="50" viewBox="0 0 50 50" fill="none" xmlns="http://www.w3.org/2000/svg">
<path d="M29.8 10.0916L35.7417 16.0332M14.5833 14.5833H8.33333C7.18274 14.5833 6.25 15.5161 6.25 16.6667V37.5C6.25 38.6506 7.18274 39.5833 8.33333 39.5833H31.25C32.4006 39.5833 33.3333 38.6506 33.3333 37.5V28.125M38.3521 7.48114C38.7424 7.87118 39.052 8.33431 39.2633 8.84406C39.4745 9.3538 39.5832 9.90018 39.5832 10.452C39.5832 11.0038 39.4745 11.5501 39.2633 12.0599C39.052 12.5696 38.7424 13.0328 38.3521 13.4228L24.0937 27.6812L16.6667 29.1667L18.1521 21.7396L32.4104 7.48114C32.8005 7.09084 33.2636 6.78122 33.7733 6.56997C34.2831 6.35873 34.8295 6.25 35.3813 6.25C35.933 6.25 36.4794 6.35873 36.9892 6.56997C37.4989 6.78122 37.962 7.09084 38.3521 7.48114Z" stroke="black" stroke-width="3.5" stroke-linecap="round" stroke-linejoin="round"/>
</svg>
