<svg width="50" height="50" viewBox="0 0 50 50" fill="none" xmlns="http://www.w3.org/2000/svg">
<path fill-rule="evenodd" clip-rule="evenodd" d="M12.817 39.3958H24.3488L27.5787 36.2507C28.0756 35.7658 28.0791 34.9692 27.5822 34.4842L17.9919 25.0975C17.495 24.6126 16.6787 24.6092 16.1818 25.0941L8.0751 32.9879C7.57465 33.4728 7.57465 34.2695 8.07155 34.7544L12.817 39.3958ZM28.2105 39.3958H46.6102V42.8076H24.7073H20.8456H16.3024H12.1213H11.9971L3.37224 34.3665C2.87533 33.8816 2.87533 33.0849 3.37579 32.6L29.3036 7.36326C29.8041 6.87834 30.6169 6.87834 31.1138 7.36672L45.1763 21.1246C45.6732 21.6096 45.6732 22.4062 45.1727 22.8912L28.2105 39.3958Z" fill="black"/>
</svg>
