<svg width="50" height="50" viewBox="0 0 50 50" fill="none" xmlns="http://www.w3.org/2000/svg">
<path d="M12.5002 8.33337L12.5002 29.1667M12.5002 29.1667C10.199 29.1667 8.3335 31.0322 8.3335 33.3334C8.3335 35.6346 10.199 37.5 12.5002 37.5M12.5002 29.1667C14.8013 29.1667 16.6668 31.0322 16.6668 33.3334C16.6668 35.6346 14.8013 37.5 12.5002 37.5M12.5002 37.5L12.5002 41.6667M25.0002 8.33337V12.5M25.0002 12.5C22.699 12.5 20.8335 14.3655 20.8335 16.6667C20.8335 18.9679 22.699 20.8334 25.0002 20.8334M25.0002 12.5C27.3013 12.5 29.1668 14.3655 29.1668 16.6667C29.1668 18.9679 27.3013 20.8334 25.0002 20.8334M25.0002 20.8334V41.6667M37.5002 8.33337V29.1667M37.5002 29.1667C35.199 29.1667 33.3335 31.0322 33.3335 33.3334C33.3335 35.6346 35.199 37.5 37.5002 37.5M37.5002 29.1667C39.8013 29.1667 41.6668 31.0322 41.6668 33.3334C41.6668 35.6346 39.8013 37.5 37.5002 37.5M37.5002 37.5V41.6667" stroke="black" stroke-width="3.5" stroke-linecap="round"/>
</svg>
