<svg width="50" height="50" viewBox="0 0 50 50" fill="none" xmlns="http://www.w3.org/2000/svg">
<path d="M9.10512 15.9514C13.4023 17.0519 14.0957 21.7973 15.7749 24.0139C18.0061 26.959 20.0988 26.5729 22.4247 29.5218C26.1862 34.2908 25.1586 41.4076 25.1586 43.4909M41.6667 31.25H39.5833C34.981 31.25 31.25 34.981 31.25 39.5833V41.6667M17.8888 8.31725C17.8888 10.0301 18.1238 12.2467 21.0457 13.6908C23.9676 15.1349 27.1245 14.4238 27.1245 18.5547C27.1245 19.1294 27.1245 22.7376 31.2337 22.7376C35.4535 22.8027 35.4535 19.2413 35.4535 18.5547C35.4535 17.2002 36.5515 16.6798 37.906 16.6798H41.6667M43.75 25C43.75 35.3553 35.3553 43.75 25 43.75C14.6447 43.75 6.25 35.3553 6.25 25C6.25 14.6447 14.6447 6.25 25 6.25C35.3553 6.25 43.75 14.6447 43.75 25Z" stroke="black" stroke-width="3.5" stroke-linecap="round"/>
</svg>
