<svg width="40" height="40" viewBox="0 0 40 40" fill="none" xmlns="http://www.w3.org/2000/svg">
<path fill-rule="evenodd" clip-rule="evenodd" d="M13.3334 16.6667V11.6667C13.3334 7.98477 16.3181 5 20 5C23.6819 5 26.6667 7.98477 26.6667 11.6667V16.6667H28.3334C30.1743 16.6667 31.6667 18.1591 31.6667 20V31.6667C31.6667 33.5076 30.1743 35 28.3334 35H11.6667C9.82576 35 8.33337 33.5076 8.33337 31.6667V20C8.33337 18.1591 9.82576 16.6667 11.6667 16.6667H13.3334ZM16.6667 11.6667C16.6667 9.82572 18.1591 8.33333 20 8.33333C21.841 8.33333 23.3334 9.82572 23.3334 11.6667V16.6667H16.6667V11.6667ZM20 21.6667C20.9205 21.6667 21.6667 22.4129 21.6667 23.3333V28.3333C21.6667 29.2538 20.9205 30 20 30C19.0796 30 18.3334 29.2538 18.3334 28.3333V23.3333C18.3334 22.4129 19.0796 21.6667 20 21.6667Z" fill="#0832DE"/>
</svg>
