<svg width="50" height="50" viewBox="0 0 50 50" fill="none" xmlns="http://www.w3.org/2000/svg">
<path d="M43.75 27.0833V22.9167C43.75 22.3641 43.5305 21.8342 43.1398 21.4435C42.7491 21.0528 42.2192 20.8333 41.6667 20.8333H40.0896L38.6167 17.2771L39.7312 16.1604C40.1218 15.7697 40.3412 15.2399 40.3412 14.6875C40.3412 14.1351 40.1218 13.6053 39.7312 13.2146L36.7854 10.2687C36.3947 9.87818 35.8649 9.65878 35.3125 9.65878C34.7601 9.65878 34.2303 9.87818 33.8396 10.2687L32.7229 11.3833L29.1667 9.91042V8.33333C29.1667 7.7808 28.9472 7.25089 28.5565 6.86019C28.1658 6.46949 27.6359 6.25 27.0833 6.25H22.9167C22.3641 6.25 21.8342 6.46949 21.4435 6.86019C21.0528 7.25089 20.8333 7.7808 20.8333 8.33333V9.91042L17.2771 11.3833L16.1604 10.2687C15.7697 9.87818 15.2399 9.65878 14.6875 9.65878C14.1351 9.65878 13.6053 9.87818 13.2146 10.2687L10.2687 13.2146C9.87818 13.6053 9.65878 14.1351 9.65878 14.6875C9.65878 15.2399 9.87818 15.7697 10.2687 16.1604L11.3854 17.2771L9.91042 20.8333H8.33333C7.7808 20.8333 7.25089 21.0528 6.86019 21.4435C6.46949 21.8342 6.25 22.3641 6.25 22.9167V27.0833C6.25 27.6359 6.46949 28.1658 6.86019 28.5565C7.25089 28.9472 7.7808 29.1667 8.33333 29.1667H9.91042L11.3833 32.7229L10.2687 33.8396C9.87818 34.2303 9.65878 34.7601 9.65878 35.3125C9.65878 35.8649 9.87818 36.3947 10.2687 36.7854L13.2146 39.7312C13.6053 40.1218 14.1351 40.3412 14.6875 40.3412C15.2399 40.3412 15.7697 40.1218 16.1604 39.7312L17.2771 38.6167L20.8333 40.0896V41.6667C20.8333 42.2192 21.0528 42.7491 21.4435 43.1398C21.8342 43.5305 22.3641 43.75 22.9167 43.75H27.0833C27.6359 43.75 28.1658 43.5305 28.5565 43.1398C28.9472 42.7491 29.1667 42.2192 29.1667 41.6667V40.0896L32.7229 38.6146L33.8396 39.7312C34.2303 40.1218 34.7601 40.3412 35.3125 40.3412C35.8649 40.3412 36.3947 40.1218 36.7854 39.7312L39.7312 36.7854C40.1218 36.3947 40.3412 35.8649 40.3412 35.3125C40.3412 34.7601 40.1218 34.2303 39.7312 33.8396L38.6167 32.7229L40.0896 29.1667H41.6667C42.2192 29.1667 42.7491 28.9472 43.1398 28.5565C43.5305 28.1658 43.75 27.6359 43.75 27.0833Z" stroke="#111928" stroke-width="3.5" stroke-linecap="round" stroke-linejoin="round"/>
<path d="M25 31.25C28.4518 31.25 31.25 28.4518 31.25 25C31.25 21.5482 28.4518 18.75 25 18.75C21.5482 18.75 18.75 21.5482 18.75 25C18.75 28.4518 21.5482 31.25 25 31.25Z" stroke="#111928" stroke-width="3.5" stroke-linecap="round" stroke-linejoin="round"/>
</svg>
