<svg width="50" height="50" viewBox="0 0 50 50" fill="none" xmlns="http://www.w3.org/2000/svg">
<path d="M18.7499 12.5H16.6666C15.516 12.5 14.5833 13.4327 14.5833 14.5833V35.4167C14.5833 36.5673 15.516 37.5 16.6666 37.5H18.7499C19.9005 37.5 20.8333 36.5673 20.8333 35.4167V14.5833C20.8333 13.4327 19.9005 12.5 18.7499 12.5Z" stroke="#111928" stroke-width="3.5" stroke-linecap="round" stroke-linejoin="round"/>
<path d="M33.3333 12.5H31.2499C30.0993 12.5 29.1666 13.4327 29.1666 14.5833V35.4167C29.1666 36.5673 30.0993 37.5 31.2499 37.5H33.3333C34.4838 37.5 35.4166 36.5673 35.4166 35.4167V14.5833C35.4166 13.4327 34.4838 12.5 33.3333 12.5Z" stroke="#111928" stroke-width="3.5" stroke-linecap="round" stroke-linejoin="round"/>
</svg>
