<svg width="50" height="50" viewBox="0 0 50 50" fill="none" xmlns="http://www.w3.org/2000/svg">
<path d="M18.5233 31.4734L31.4768 18.5199M20.6822 17.4405H20.7038M27.1373 32.5529H27.1589M29.3329 8.12907C29.911 8.74733 30.6146 9.2348 31.3966 9.55875C32.1785 9.8827 33.0207 10.0357 33.8667 10.0073C34.6785 9.97964 35.4873 10.1191 36.2429 10.4171C36.9986 10.7151 37.6848 11.1653 38.2592 11.7396C38.8336 12.314 39.2837 13.0003 39.5817 13.7559C39.8797 14.5116 40.0192 15.3204 39.9915 16.1322C39.9632 16.9781 40.1161 17.8203 40.4401 18.6023C40.7641 19.3842 41.2515 20.0878 41.8698 20.6659C42.4632 21.2209 42.9363 21.8919 43.2597 22.6372C43.5831 23.3825 43.75 24.1864 43.75 24.9988C43.75 25.8113 43.5831 26.6152 43.2597 27.3605C42.9363 28.1058 42.4632 28.7768 41.8698 29.3318C41.2515 29.9099 40.7641 30.6135 40.4401 31.3954C40.1161 32.1774 39.9632 33.0196 39.9915 33.8655C40.0192 34.6773 39.8797 35.4861 39.5817 36.2418C39.2837 36.9974 38.8336 37.6837 38.2592 38.2581C37.6848 38.8324 36.9986 39.2826 36.2429 39.5806C35.4873 39.8786 34.6785 40.0181 33.8667 39.9904C33.0207 39.962 32.1785 40.115 31.3966 40.4389C30.6146 40.7629 29.911 41.2504 29.3329 41.8686C28.778 42.462 28.107 42.9351 27.3617 43.2585C26.6163 43.582 25.8125 43.7488 25 43.7488C24.1875 43.7488 23.3837 43.582 22.6383 43.2585C21.893 42.9351 21.222 42.462 20.6671 41.8686C20.089 41.2504 19.3854 40.7629 18.6034 40.4389C17.8215 40.115 16.9793 39.962 16.1333 39.9904C15.3215 40.0181 14.5127 39.8786 13.7571 39.5806C13.0015 39.2826 12.3152 38.8324 11.7408 38.2581C11.1664 37.6837 10.7163 36.9974 10.4183 36.2418C10.1203 35.4861 9.98079 34.6773 10.0085 33.8655C10.0368 33.0196 9.88386 32.1774 9.5599 31.3954C9.23595 30.6135 8.74849 29.9099 8.13023 29.3318C7.53683 28.7768 7.06375 28.1058 6.74032 27.3605C6.41689 26.6152 6.25 25.8113 6.25 24.9988C6.25 24.1864 6.41689 23.3825 6.74032 22.6372C7.06375 21.8919 7.53683 21.2209 8.13023 20.6659C8.74849 20.0878 9.23595 19.3842 9.5599 18.6023C9.88386 17.8203 10.0368 16.9781 10.0085 16.1322C9.98077 15.3202 10.1203 14.5112 10.4184 13.7554C10.7166 12.9996 11.1669 12.3132 11.7415 11.7388C12.3161 11.1644 13.0027 10.7143 13.7586 10.4165C14.5145 10.1186 15.3235 9.97933 16.1355 10.0073C16.9814 10.0357 17.8236 9.8827 18.6056 9.55875C19.3875 9.2348 20.0912 8.74733 20.6692 8.12907C21.2242 7.53602 21.895 7.06323 22.6402 6.74C23.3853 6.41678 24.1889 6.25 25.0011 6.25C25.8133 6.25 26.6169 6.41678 27.362 6.74C28.1071 7.06323 28.778 7.53602 29.3329 8.12907Z" stroke="black" stroke-width="3.5" stroke-linecap="round" stroke-linejoin="round"/>
</svg>
