<svg width="50" height="50" viewBox="0 0 50 50" fill="none" xmlns="http://www.w3.org/2000/svg">
<path d="M10.4166 25C9.26599 25 8.33325 25.9327 8.33325 27.0833V35.4167C8.33325 36.5673 9.26599 37.5 10.4166 37.5H39.5833C40.7338 37.5 41.6666 36.5673 41.6666 35.4167V27.0833C41.6666 25.9327 40.7338 25 39.5833 25M10.4166 25H39.5833M10.4166 25C9.26599 25 8.33325 24.0673 8.33325 22.9167V14.5833C8.33325 13.4327 9.26599 12.5 10.4166 12.5H39.5833C40.7338 12.5 41.6666 13.4327 41.6666 14.5833V22.9167C41.6666 24.0673 40.7338 25 39.5833 25M35.4166 31.25H35.4374M29.1666 31.25H29.1874M35.4166 18.75H35.4374M29.1666 18.75H29.1874" stroke="black" stroke-width="2.5" stroke-linecap="round" stroke-linejoin="round"/>
</svg>
