<svg width="50" height="50" viewBox="0 0 50 50" fill="none" xmlns="http://www.w3.org/2000/svg">
<path d="M24.9999 43.2292C20.9941 43.2292 17.1522 41.638 14.3197 38.8052C11.4871 35.9727 9.89575 32.1309 9.89575 28.125C9.89575 24.1192 11.4871 20.2774 14.3197 17.4448C17.1522 14.6122 20.9941 13.0209 24.9999 13.0209H30.2083C30.6226 13.0209 31.0201 13.1855 31.313 13.4785C31.6062 13.7715 31.7708 14.169 31.7708 14.5834C31.7708 14.9978 31.6062 15.3952 31.313 15.6882C31.0201 15.9812 30.6226 16.1459 30.2083 16.1459H24.9999C22.6308 16.1459 20.3146 16.8484 18.3446 18.1647C16.3747 19.481 14.8393 21.3519 13.9326 23.5409C13.0259 25.7296 12.7887 28.1384 13.2509 30.4621C13.7131 32.7859 14.854 34.9202 16.5294 36.5957C18.2047 38.2709 20.3392 39.4119 22.6628 39.874C24.9866 40.3363 27.3953 40.099 29.5841 39.1923C31.773 38.2857 33.6439 36.7502 34.9603 34.7802C36.2766 32.8102 36.9791 30.4942 36.9791 28.125C36.9791 27.7107 37.1437 27.3132 37.4368 27.0202C37.7297 26.7271 38.1272 26.5625 38.5416 26.5625C38.956 26.5625 39.3535 26.7271 39.6464 27.0202C39.9395 27.3132 40.1041 27.7107 40.1041 28.125C40.0987 32.1292 38.5055 35.9677 35.6741 38.7992C32.8426 41.6307 29.0041 43.2238 24.9999 43.2292Z" fill="black"/>
<path d="M24.9999 22.3958C24.7947 22.3969 24.5912 22.3569 24.4016 22.2781C24.212 22.1994 24.0399 22.0836 23.8958 21.9375C23.6033 21.6446 23.4389 21.2475 23.4389 20.8333C23.4389 20.4193 23.6033 20.0222 23.8958 19.7292L29.0416 14.5834L23.8958 9.43757C23.7422 9.29453 23.6191 9.12203 23.5337 8.93036C23.4483 8.7387 23.4024 8.5318 23.3987 8.32199C23.3949 8.1122 23.4337 7.9038 23.5122 7.70924C23.5908 7.5147 23.7076 7.33795 23.8562 7.18957C24.0045 7.0412 24.1812 6.92424 24.3758 6.84566C24.5704 6.76707 24.7787 6.72847 24.9885 6.73218C25.1983 6.73589 25.4051 6.7818 25.5968 6.8672C25.7885 6.95259 25.961 7.07572 26.1041 7.22924L32.3541 13.4792C32.6468 13.7722 32.811 14.1693 32.811 14.5834C32.811 14.9975 32.6468 15.3946 32.3541 15.6876L26.1041 21.9375C25.9599 22.0836 25.7879 22.1994 25.5983 22.2781C25.4087 22.3569 25.2051 22.3969 24.9999 22.3958Z" fill="black"/>
</svg>
