<svg width="50" height="50" viewBox="0 0 50 50" fill="none" xmlns="http://www.w3.org/2000/svg">
<path d="M36.7728 15.9394C35.0115 13.6508 32.6212 11.9252 29.8945 10.9737C27.1679 10.0222 24.223 9.88612 21.4201 10.5821C18.6173 11.278 16.0781 12.7758 14.1132 14.8922C12.1482 17.0085 10.8427 19.6518 10.3564 22.4985M37.5001 8.33337V16.6667H29.1668M13.2273 34.0607C14.9886 36.3493 17.3789 38.0749 20.1056 39.0264C22.8323 39.9779 25.7771 40.114 28.58 39.418C31.3828 38.7221 33.922 37.2243 35.8869 35.1079C37.8519 32.9915 39.1574 30.3483 39.6437 27.5016M12.5001 41.6667V33.3334H20.8335" stroke="black" stroke-width="3.5" stroke-linecap="round" stroke-linejoin="round"/>
</svg>
