<svg width="50" height="50" viewBox="0 0 50 50" fill="none" xmlns="http://www.w3.org/2000/svg">
<path d="M10.4167 14.5833H39.5834M20.8334 20.8333V37.5M29.1667 20.8333V37.5M20.8334 6.25H29.1667C29.7193 6.25 30.2492 6.46949 30.6399 6.86019C31.0306 7.25089 31.2501 7.7808 31.2501 8.33333V14.5833H18.7501V8.33333C18.7501 7.7808 18.9696 7.25089 19.3603 6.86019C19.751 6.46949 20.2809 6.25 20.8334 6.25ZM12.5001 14.5833H37.5001V41.6667C37.5001 42.2192 37.2806 42.7491 36.8899 43.1398C36.4992 43.5305 35.9693 43.75 35.4167 43.75H14.5834C14.0309 43.75 13.501 43.5305 13.1103 43.1398C12.7196 42.7491 12.5001 42.2192 12.5001 41.6667V14.5833Z" stroke="#D93025" stroke-width="3.5" stroke-linecap="round" stroke-linejoin="round"/>
</svg>
