<svg width="50" height="50" viewBox="0 0 50 50" fill="none" xmlns="http://www.w3.org/2000/svg">
<path d="M9.375 35.4166H8.33333C7.18274 35.4166 6.25 34.4839 6.25 33.3333C6.25 29.8815 9.04822 27.0833 12.5 27.0833H14.5833M14.5833 20.7291C12.206 20.2465 10.4167 18.1447 10.4167 15.625C10.4167 12.7485 12.7485 10.4166 15.625 10.4166C16.7977 10.4166 17.8799 10.8042 18.7505 11.4583M40.6255 35.4166H41.6672C42.8178 35.4166 43.7505 34.4839 43.7505 33.3333C43.7505 29.8815 40.9523 27.0833 37.5005 27.0833H35.4172M35.4172 20.7291C37.7945 20.2465 39.5838 18.1447 39.5838 15.625C39.5838 12.7485 37.252 10.4166 34.3755 10.4166C33.2028 10.4166 32.1206 10.8042 31.25 11.4583M32.2917 39.5833H17.7083C16.5577 39.5833 15.625 38.6506 15.625 37.5C15.625 34.0482 18.4232 31.25 21.875 31.25H28.125C31.5768 31.25 34.375 34.0482 34.375 37.5C34.375 38.6506 33.4423 39.5833 32.2917 39.5833ZM30.2083 19.7916C30.2083 22.6681 27.8765 25 25 25C22.1235 25 19.7917 22.6681 19.7917 19.7916C19.7917 16.9151 22.1235 14.5833 25 14.5833C27.8765 14.5833 30.2083 16.9151 30.2083 19.7916Z" stroke="black" stroke-width="2.5" stroke-linecap="round"/>
</svg>
