<svg width="60" height="60" viewBox="0 0 60 60" fill="none" xmlns="http://www.w3.org/2000/svg">
<rect width="60" height="60" rx="10" fill="#D93025" fill-opacity="0.2"/>
<path fill-rule="evenodd" clip-rule="evenodd" d="M15.3805 47.275H29.2186L33.0945 43.5009C33.6908 42.919 33.6951 41.963 33.0988 41.3811L21.5904 30.1171C20.9941 29.5352 20.0145 29.531 19.4182 30.1129L9.69022 39.5855C9.08967 40.1674 9.08967 41.1234 9.68596 41.7053L15.3805 47.275ZM33.8526 47.275H55.9323V51.3691H29.6488H25.0148H19.563H14.5457H14.3966L4.04678 41.2398C3.45049 40.6579 3.45049 39.7019 4.05104 39.12L35.1645 8.83594C35.765 8.25403 36.7404 8.25403 37.3367 8.84009L54.2116 25.3496C54.8079 25.9315 54.8079 26.8875 54.2073 27.4694L33.8526 47.275Z" fill="#D93025"/>
</svg>
