<svg width="60" height="60" viewBox="0 0 60 60" fill="none" xmlns="http://www.w3.org/2000/svg">
<rect width="60" height="60" rx="10" fill="#D93025" fill-opacity="0.2"/>
<path d="M44.1272 19.1272C42.0135 16.3809 39.1452 14.3102 35.8732 13.1684C32.6012 12.0266 29.0673 11.8633 25.7039 12.6984C22.3405 13.5335 19.2935 15.3309 16.9356 17.8705C14.5776 20.4102 13.011 23.5821 12.4275 26.9981M44.9999 10V20H34.9999M15.8725 40.8728C17.9861 43.6191 20.8544 45.6898 24.1264 46.8316C27.3985 47.9734 30.9323 48.1367 34.2957 47.3016C37.6591 46.4665 40.7062 44.6691 43.0641 42.1295C45.422 39.5898 46.9886 36.4179 47.5721 33.0019M14.9999 50V40H24.9999" stroke="#D93025" stroke-width="3.5" stroke-linecap="round" stroke-linejoin="round"/>
</svg>
