<svg width="60" height="60" viewBox="0 0 60 60" fill="none" xmlns="http://www.w3.org/2000/svg">
<rect width="60" height="60" rx="10" fill="#D93025" fill-opacity="0.2"/>
<path d="M30 51.875C25.193 51.875 20.5828 49.9655 17.1837 46.5662C13.7846 43.1672 11.875 38.557 11.875 33.75C11.875 28.943 13.7846 24.3328 17.1837 20.9337C20.5828 17.5346 25.193 15.625 30 15.625H36.25C36.7472 15.625 37.2243 15.8225 37.5758 16.1742C37.9275 16.5258 38.125 17.0027 38.125 17.5C38.125 17.9973 37.9275 18.4742 37.5758 18.8258C37.2243 19.1775 36.7472 19.375 36.25 19.375H30C27.157 19.375 24.3776 20.2181 22.0137 21.7976C19.6497 23.3772 17.8072 25.6222 16.7192 28.249C15.6312 30.8755 15.3465 33.766 15.9012 36.5545C16.4559 39.343 17.825 41.9043 19.8354 43.9148C21.8457 45.925 24.4071 47.2942 27.1955 47.8487C29.984 48.4035 32.8745 48.1187 35.501 47.0307C38.1278 45.9427 40.3728 44.1002 41.9525 41.7362C43.532 39.3722 44.375 36.593 44.375 33.75C44.375 33.2528 44.5725 32.7757 44.9242 32.4242C45.2757 32.0725 45.7528 31.875 46.25 31.875C46.7472 31.875 47.2243 32.0725 47.5758 32.4242C47.9275 32.7757 48.125 33.2528 48.125 33.75C48.1185 38.555 46.2067 43.1613 42.809 46.559C39.4113 49.9567 34.805 51.8685 30 51.875Z" fill="#D93025"/>
<path d="M29.9999 26.8751C29.7537 26.8763 29.5094 26.8283 29.2819 26.7338C29.0544 26.6393 28.8479 26.5003 28.6749 26.3251C28.3239 25.9736 28.1267 25.4971 28.1267 25.0001C28.1267 24.5033 28.3239 24.0267 28.6749 23.6751L34.8499 17.5001L28.6749 11.3251C28.4907 11.1535 28.3429 10.9465 28.2404 10.7165C28.1379 10.4865 28.0829 10.2382 28.0784 9.98644C28.0739 9.73469 28.1204 9.48461 28.2147 9.25114C28.3089 9.01769 28.4492 8.80559 28.6274 8.62754C28.8054 8.44949 29.0174 8.30914 29.2509 8.21484C29.4844 8.12054 29.7344 8.07421 29.9862 8.07866C30.2379 8.08311 30.4862 8.13821 30.7162 8.24069C30.9462 8.34316 31.1532 8.49091 31.3249 8.67514L38.8249 16.1751C39.1762 16.5267 39.3732 17.0033 39.3732 17.5001C39.3732 17.997 39.1762 18.4736 38.8249 18.8251L31.3249 26.3251C31.1519 26.5003 30.9454 26.6393 30.7179 26.7338C30.4904 26.8283 30.2462 26.8763 29.9999 26.8751Z" fill="#D93025"/>
</svg>
