<svg width="60" height="60" viewBox="0 0 60 60" fill="none" xmlns="http://www.w3.org/2000/svg">
<rect width="60" height="60" rx="10" fill="#D93025" fill-opacity="0.2"/>
<path d="M14 18.1111H46M25.4286 24.9444V43.1667M34.5714 24.9444V43.1667M25.4286 9H34.5714C35.1776 9 35.759 9.23998 36.1877 9.66715C36.6163 10.0943 36.8571 10.6737 36.8571 11.2778V18.1111H23.1429V11.2778C23.1429 10.6737 23.3837 10.0943 23.8123 9.66715C24.241 9.23998 24.8224 9 25.4286 9ZM16.2857 18.1111H43.7143V47.7222C43.7143 48.3263 43.4735 48.9057 43.0448 49.3329C42.6162 49.76 42.0348 50 41.4286 50H18.5714C17.9652 50 17.3838 49.76 16.9552 49.3329C16.5265 48.9057 16.2857 48.3263 16.2857 47.7222V18.1111Z" stroke="#D93025" stroke-width="3.5" stroke-linecap="round" stroke-linejoin="round"/>
</svg>
